<svg width="646" height="706" viewBox="0 0 646 706" fill="none" xmlns="http://www.w3.org/2000/svg" style="">
<path d="M285 417.529L552.843 540.814L285 704.099L17.1571 540.814L285 417.529Z" stroke="#A4ABC3" stroke-opacity="0.3" stroke-width="2" class="JJUtjIkU_0"></path>
<path d="M285 245L567.843 368.285L285 526.57L2.15726 368.285L285 245Z" stroke="#A4ABC3" stroke-opacity="0.3" stroke-width="2" class="JJUtjIkU_1"></path>
<path d="M360.843 120L643.685 243.285L360.843 401.57L78 243.285L360.843 120Z" stroke="#A4ABC3" stroke-opacity="0.3" stroke-width="2" class="JJUtjIkU_2"></path>
<path d="M360.843 80L643.685 203.285L360.843 361.57L78 203.285L360.843 80Z" stroke="#A4ABC3" stroke-opacity="0.3" stroke-width="2" class="JJUtjIkU_3"></path>
<path d="M360.843 40L643.685 163.285L360.843 321.57L78 163.285L360.843 40Z" stroke="#A4ABC3" stroke-opacity="0.3" stroke-width="2" class="JJUtjIkU_4"></path>
<path d="M285 526.529L285 703.529" stroke="#A4ABC3" stroke-opacity="0.3" stroke-width="2" class="JJUtjIkU_5"></path>
<path d="M568.5 368.529L553.5 540.729" stroke="#A4ABC3" stroke-opacity="0.3" stroke-width="2" class="JJUtjIkU_6"></path>
<path d="M2 368.529L17 540.729" stroke="#A4ABC3" stroke-opacity="0.3" stroke-width="2" class="JJUtjIkU_7"></path>
<path d="M285 246.529L285 418.529" stroke="#A4ABC3" stroke-opacity="0.3" stroke-width="2" class="JJUtjIkU_8"></path>
<style data-made-with="vivus-instant">.JJUtjIkU_0{stroke-dasharray:1218 1220;stroke-dashoffset:1219;animation:JJUtjIkU_draw 3000ms linear 0ms forwards;}.JJUtjIkU_1{stroke-dasharray:1266 1268;stroke-dashoffset:1267;animation:JJUtjIkU_draw 3000ms linear 375ms forwards;}.JJUtjIkU_2{stroke-dasharray:1266 1268;stroke-dashoffset:1267;animation:JJUtjIkU_draw 3000ms linear 750ms forwards;}.JJUtjIkU_3{stroke-dasharray:1266 1268;stroke-dashoffset:1267;animation:JJUtjIkU_draw 3000ms linear 1125ms forwards;}.JJUtjIkU_4{stroke-dasharray:1266 1268;stroke-dashoffset:1267;animation:JJUtjIkU_draw 3000ms linear 1500ms forwards;}.JJUtjIkU_5{stroke-dasharray:177 179;stroke-dashoffset:178;animation:JJUtjIkU_draw 3000ms linear 1875ms forwards;}.JJUtjIkU_6{stroke-dasharray:173 175;stroke-dashoffset:174;animation:JJUtjIkU_draw 3000ms linear 2250ms forwards;}.JJUtjIkU_7{stroke-dasharray:173 175;stroke-dashoffset:174;animation:JJUtjIkU_draw 3000ms linear 2625ms forwards;}.JJUtjIkU_8{stroke-dasharray:172 174;stroke-dashoffset:173;animation:JJUtjIkU_draw 3000ms linear 3000ms forwards;}@keyframes JJUtjIkU_draw{100%{stroke-dashoffset:0;}}@keyframes JJUtjIkU_fade{0%{stroke-opacity:1;}96.07843137254902%{stroke-opacity:1;}100%{stroke-opacity:0;}}</style></svg>
