<svg width="52" height="52" viewBox="0 0 52 52" fill="none" xmlns="http://www.w3.org/2000/svg">
<path d="M14 41H28C34.864 41 39 37.5 39 32C39 27.732 36.608 26.232 33 25C35.288 23.812 38 21.696 38 18C38 15.844 37.364 14.364 36 13C34.24 11.24 31.52 10 28 10H14V41ZM19 23V14.996H27C30.476 14.996 33 16.58 33 19C33 21.904 30.3934 23 26.9174 23H19ZM19 36V28H28C32.268 28 34 29.404 34 32C34 34.86 31.696 36 28 36H19Z" fill="#A5ACC4"/>
<path d="M5 0L5 51H7L7 0H5Z" fill="#A5ACC4"/>
<path d="M46 0H5V2H46V0Z" fill="#A5ACC4"/>
<path d="M46 49H5V51H46V49Z" fill="#A5ACC4"/>
<path d="M45 0V51H47V0H45Z" fill="#A5ACC4"/>
</svg>
