<svg width="208" height="51" viewBox="0 0 208 51" fill="none" xmlns="http://www.w3.org/2000/svg">
<path d="M9.576 41H22.952C29.596 41 33.996 37.744 33.996 32.596C33.996 28.24 30.74 26.128 27.044 25.16C29.552 24.148 32.28 22.036 32.28 17.856C32.28 13.192 28.32 10.2 22.292 10.2H9.576V41ZM11.864 38.888V26.524H22.292C28.364 26.524 31.664 28.724 31.664 32.508C31.664 36.468 28.32 38.888 23.04 38.888H11.864ZM11.864 24.412V12.312H22.248C27.176 12.312 29.948 14.6 29.948 17.988C29.948 22.168 26.648 24.412 22.028 24.412H11.864ZM46.3459 41.528C50.6139 41.528 53.3859 39.416 54.9259 37.26V41H57.0379V27.008C57.0379 24.236 56.2459 22.168 54.7499 20.672C53.1219 19.044 50.7019 18.208 47.6659 18.208C44.5859 18.208 42.1659 19 39.7019 20.144L40.4939 22.036C42.5619 20.98 44.8059 20.232 47.5339 20.232C52.1539 20.232 54.9259 22.564 54.9259 27.096V28.064C52.7699 27.492 50.6139 27.096 47.4899 27.096C41.6819 27.096 37.6779 29.736 37.6779 34.4C37.6779 39.152 42.1659 41.528 46.3459 41.528ZM46.4779 39.504C43.0459 39.504 39.9659 37.612 39.9659 34.356C39.9659 31.144 42.6059 29.032 47.3579 29.032C50.5699 29.032 53.0779 29.56 54.9699 30.044V32.596C54.9699 36.688 51.0539 39.504 46.4779 39.504ZM63.7795 41H65.9355V8.88H63.7795V41ZM82.5686 41.528C86.8806 41.528 89.5646 39.768 91.8526 37.304L90.3566 35.984C88.5086 37.964 86.1326 39.504 82.6566 39.504C78.2566 39.504 74.2526 36.248 73.8566 30.66H92.4686C92.5126 30.308 92.5126 30.176 92.5126 29.78C92.5126 23.136 88.5086 18.032 82.2166 18.032C76.1446 18.032 71.5686 23.224 71.5686 29.736C71.5686 36.82 76.6726 41.528 82.5686 41.528ZM73.8566 28.724C74.2526 23.752 77.6846 20.012 82.1286 20.012C87.2766 20.012 89.8726 24.192 90.1806 28.724H73.8566ZM97.4839 41H99.6399V31.804C99.6399 24.5 104.172 20.584 109.364 20.584H109.584V18.208C105.14 18.032 101.4 20.936 99.6399 24.94V18.56H97.4839V41ZM122.608 41.528C129.296 41.528 134.18 36.072 134.18 29.78C134.18 23.4 129.34 18.032 122.696 18.032C116.008 18.032 111.124 23.488 111.124 29.78C111.124 36.16 115.964 41.528 122.608 41.528ZM122.696 39.504C117.504 39.504 113.456 35.192 113.456 29.78C113.456 24.412 117.548 20.056 122.608 20.056C127.668 20.056 131.848 24.368 131.848 29.78C131.848 35.148 127.668 39.504 122.696 39.504ZM150.136 41.44C156.604 41.44 161.136 38.008 161.136 32.244C161.136 27.052 157.748 24.72 151.236 23.136C145.34 21.728 143.932 20.672 143.932 18.296C143.932 16.184 145.78 14.556 148.948 14.556C151.764 14.556 154.536 15.656 157.308 17.724L160.212 13.632C157.088 11.124 153.524 9.76 149.036 9.76C142.92 9.76 138.52 13.412 138.52 18.692C138.52 24.456 142.216 26.392 148.772 27.932C154.492 29.296 155.724 30.484 155.724 32.684C155.724 35.104 153.612 36.644 150.268 36.644C146.44 36.644 143.492 35.192 140.544 32.64L137.288 36.512C140.984 39.812 145.428 41.44 150.136 41.44ZM165.609 41H171.021V10.2H165.609V41ZM174.426 41H179.97L183.138 33.564H197.702L200.826 41H206.546L192.994 9.98H187.978L174.426 41ZM185.118 28.768L190.398 16.448L195.722 28.768H185.118Z" fill="#C3C7D7"/>
<rect y="51" width="51" height="2" transform="rotate(-90 0 51)" fill="#C3C7D7"/>
<rect width="41" height="2" fill="#C3C7D7"/>
<rect y="49" width="41" height="2" fill="#C3C7D7"/>
<rect x="39" y="51" width="7" height="2" transform="rotate(-90 39 51)" fill="#C3C7D7"/>
<rect x="39" y="15" width="15" height="2" transform="rotate(-90 39 15)" fill="#C3C7D7"/>
</svg>
