<svg width="42" height="51" viewBox="0 0 42 51" fill="none" xmlns="http://www.w3.org/2000/svg">
<path d="M9.57599 41H22.952C29.596 41 33.996 37.744 33.996 32.596C33.996 28.24 30.74 26.128 27.044 25.16C29.552 24.148 32.28 22.036 32.28 17.856C32.28 13.192 28.32 10.2 22.292 10.2H9.57599V41ZM11.864 38.888V26.524H22.292C28.364 26.524 31.664 28.724 31.664 32.508C31.664 36.468 28.32 38.888 23.04 38.888H11.864ZM11.864 24.412V12.312H22.248C27.176 12.312 29.948 14.6 29.948 17.988C29.948 22.168 26.648 24.412 22.028 24.412H11.864Z" fill="#C3C7D7"/>
<path d="M0 0L0 51H2L2 0H0Z" fill="#C3C7D7"/>
<path d="M41 0H0V2H41V0Z" fill="#C3C7D7"/>
<path d="M41 49H0V51H41V49Z" fill="#C3C7D7"/>
<path d="M40 33V51H42V33H40Z" fill="#C3C7D7"/>
<path d="M40 0V33H42V0H40Z" fill="#C3C7D7"/>
</svg>
