<svg width="865" height="197" viewBox="0 0 865 197" fill="none" xmlns="http://www.w3.org/2000/svg">
<path d="M2.55597 179.783C13.9264 98.9261 135.216 -6.52052 183.858 1.98974C239.422 11.711 265 98 243 152.5C221 207 131 204.5 131 152.5C131 100.5 228.932 43.8916 278.5 39C354.5 31.5 341.677 201.422 418.089 194.696C494.5 187.971 516.5 53.4395 563.5 58.7197C610.5 64 564 155.126 614.5 182.5C665 209.874 736.072 165.376 733 80C729.928 -5.37577 630.5 17.5 664 111.5C697.5 205.5 795.5 181.304 862 129.5" stroke="white" stroke-width="3" stroke-linecap="square" stroke-linejoin="round" stroke-dasharray="2 8"/>
</svg>
