<?xml version="1.0" standalone="no"?>
<!DOCTYPE svg PUBLIC "-//W3C//DTD SVG 20010904//EN"
 "http://www.w3.org/TR/2001/REC-SVG-20010904/DTD/svg10.dtd">
<svg version="1.0" xmlns="http://www.w3.org/2000/svg"
 width="1136.000000pt" height="1136.000000pt" viewBox="0 0 1136.000000 1136.000000"
 preserveAspectRatio="xMidYMid meet">
<metadata>
Created by potrace 1.11, written by Peter Selinger 2001-2013
</metadata>
<g transform="translate(0.000000,1136.000000) scale(0.100000,-0.100000)"
fill="#000000" stroke="none">
<path d="M3211 11198 c-14 -5 -17 -14 -14 -35 2 -15 4 -32 3 -38 -5 -85 -3
-308 3 -312 4 -2 4 -9 0 -15 -9 -16 -10 -79 -1 -105 4 -13 3 -23 -2 -23 -5 0
-5 -12 0 -30 5 -17 5 -32 0 -35 -5 -3 -5 -16 0 -30 5 -14 6 -25 2 -25 -4 0 -7
-25 -7 -55 0 -30 2 -55 5 -55 7 0 4 -69 -3 -76 -3 -3 -2 -17 3 -30 5 -13 6
-24 2 -24 -4 0 -7 -25 -7 -55 0 -30 3 -55 7 -55 4 0 3 -13 -2 -30 -5 -16 -5
-30 0 -30 4 0 4 -15 0 -34 -4 -19 -4 -40 1 -47 4 -7 4 -18 -1 -24 -5 -6 -5
-17 0 -25 4 -7 4 -24 0 -36 -6 -14 -5 -26 0 -29 6 -4 7 -13 1 -23 -6 -11 -6
-24 0 -34 6 -10 6 -19 0 -23 -7 -4 -7 -15 -1 -30 5 -14 6 -25 2 -25 -4 0 -7
-25 -7 -55 0 -30 3 -55 7 -55 4 0 3 -13 -2 -30 -5 -18 -5 -30 0 -30 6 0 6 -10
0 -25 -6 -15 -6 -26 0 -30 6 -4 7 -13 1 -24 -6 -10 -6 -23 -1 -31 5 -8 5 -21
0 -30 -5 -9 -4 -23 1 -32 6 -10 6 -19 0 -23 -7 -4 -7 -15 -1 -30 6 -15 6 -25
0 -25 -5 0 -5 -12 0 -30 5 -17 5 -32 0 -35 -5 -3 -5 -16 0 -30 5 -14 6 -25 2
-25 -4 0 -7 -25 -7 -55 0 -30 2 -55 5 -55 7 0 4 -69 -3 -76 -3 -3 -2 -17 3
-30 5 -13 6 -24 2 -24 -4 0 -7 -25 -7 -55 0 -30 3 -55 7 -55 4 0 3 -13 -2 -30
-5 -16 -5 -30 -1 -30 5 0 5 -17 1 -38 -4 -21 -3 -48 1 -60 5 -12 5 -22 1 -22
-4 0 -7 -13 -7 -30 0 -16 3 -30 7 -30 4 0 3 -13 -2 -30 -5 -18 -5 -30 0 -30 6
0 6 -10 0 -25 -6 -15 -6 -26 0 -30 6 -4 7 -13 1 -23 -6 -11 -6 -24 0 -34 6
-10 6 -19 0 -23 -7 -4 -7 -15 -1 -30 6 -15 6 -25 0 -25 -5 0 -5 -12 0 -30 5
-17 5 -32 0 -35 -5 -3 -5 -16 0 -30 5 -14 6 -25 2 -25 -4 0 -7 -25 -7 -55 0
-30 3 -55 7 -55 4 0 5 -7 2 -15 -9 -22 -10 -145 -2 -145 4 0 3 -11 -2 -25 -6
-15 -6 -26 0 -30 6 -4 7 -13 1 -24 -5 -9 -6 -23 -1 -31 4 -7 4 -24 0 -36 -6
-14 -5 -26 0 -29 6 -4 7 -13 1 -23 -6 -11 -6 -24 0 -34 6 -10 6 -19 0 -23 -7
-4 -7 -15 -1 -30 6 -15 6 -25 0 -25 -5 0 -5 -12 -1 -27 4 -16 4 -40 0 -55 -4
-16 -3 -28 2 -28 5 0 4 -11 -1 -25 -6 -15 -6 -26 1 -30 5 -4 7 -10 4 -14 -5
-9 -9 -118 -5 -136 1 -5 1 -14 0 -20 -3 -12 -2 -126 0 -140 1 -5 1 -14 0 -20
-3 -12 -2 -126 0 -140 1 -5 1 -14 0 -20 -3 -12 -2 -126 0 -140 1 -5 1 -14 0
-20 -6 -22 -2 -223 4 -233 3 -6 2 -13 -3 -17 -7 -4 -7 -15 -1 -30 5 -14 6 -25
2 -25 -4 0 -7 -25 -7 -55 0 -30 3 -55 7 -55 4 0 5 -6 3 -12 -9 -23 -11 -108
-3 -108 4 0 3 -11 -2 -25 -6 -15 -6 -26 0 -30 6 -4 7 -13 1 -24 -6 -10 -6 -23
-1 -31 5 -8 5 -21 0 -30 -5 -9 -4 -23 1 -32 6 -10 6 -19 0 -23 -7 -4 -7 -15
-1 -30 5 -14 6 -25 2 -25 -4 0 -7 -25 -7 -55 0 -30 3 -55 7 -55 4 0 5 -6 3
-12 -9 -23 -11 -108 -3 -108 4 0 3 -11 -2 -25 -6 -15 -6 -26 0 -30 6 -4 7 -13
1 -24 -6 -10 -6 -23 -1 -31 5 -8 6 -18 4 -22 -5 -8 -8 -251 -4 -273 1 -5 1
-14 0 -20 -3 -12 -2 -126 0 -140 1 -5 1 -14 0 -20 -3 -12 -2 -126 0 -140 1 -5
1 -14 0 -20 -3 -12 -2 -126 0 -140 1 -5 1 -14 0 -20 -6 -26 -5 -52 2 -72 4
-13 4 -23 0 -23 -4 0 -7 -13 -7 -30 0 -16 3 -30 7 -30 4 0 3 -13 -2 -30 -5
-18 -5 -30 0 -30 6 0 6 -10 0 -25 -6 -15 -6 -26 0 -30 6 -4 7 -13 1 -23 -6
-11 -6 -24 0 -34 6 -10 6 -19 0 -23 -7 -4 -7 -15 -1 -30 6 -15 6 -25 0 -25 -5
0 -5 -12 0 -30 5 -17 5 -32 0 -35 -5 -3 -5 -16 0 -30 5 -14 6 -25 2 -25 -4 0
-7 -25 -7 -55 0 -30 3 -55 7 -55 4 0 5 -7 2 -15 -9 -22 -10 -145 -2 -145 4 0
3 -11 -2 -25 -6 -15 -6 -26 0 -30 6 -4 7 -13 1 -24 -5 -9 -6 -23 -1 -31 4 -7
4 -24 0 -36 -6 -14 -5 -26 0 -29 6 -4 7 -13 1 -23 -6 -11 -6 -24 0 -34 6 -10
6 -19 0 -23 -7 -4 -7 -15 -1 -30 6 -15 6 -25 0 -25 -5 0 -5 -12 -1 -27 4 -16
4 -40 0 -56 -4 -15 -3 -27 2 -27 5 0 4 -11 -1 -25 -6 -15 -6 -27 0 -30 5 -3 6
-15 0 -29 -4 -12 -4 -29 0 -36 5 -8 5 -19 0 -25 -5 -6 -5 -17 0 -25 4 -7 4
-24 0 -36 -6 -14 -5 -26 0 -29 6 -4 7 -13 1 -23 -6 -11 -6 -24 0 -34 6 -10 6
-19 0 -23 -7 -4 -7 -15 -1 -30 5 -14 6 -25 2 -25 -4 0 -7 -25 -7 -55 0 -30 3
-55 7 -55 4 0 3 -13 -2 -30 -5 -18 -5 -30 0 -30 6 0 6 -10 0 -25 -6 -15 -6
-26 0 -30 6 -4 7 -13 1 -24 -6 -10 -6 -23 -1 -31 5 -8 5 -21 0 -30 -5 -9 -4
-23 1 -32 6 -10 6 -19 0 -23 -7 -4 -7 -15 -1 -30 6 -15 6 -25 0 -25 -5 0 -5
-12 0 -30 5 -17 5 -32 0 -35 -5 -3 -5 -16 0 -30 5 -14 6 -25 2 -25 -4 0 -7
-25 -7 -55 0 -30 2 -55 5 -55 7 0 4 -69 -3 -76 -3 -3 -2 -17 3 -30 5 -13 6
-24 2 -24 -4 0 -7 -25 -7 -55 0 -30 3 -55 7 -55 4 0 3 -13 -2 -30 -5 -16 -5
-30 0 -30 4 0 4 -15 0 -34 -4 -19 -4 -40 1 -47 4 -7 3 -21 -2 -30 -5 -11 -5
-20 0 -24 6 -3 6 -17 1 -35 -5 -18 -5 -30 0 -30 6 0 6 -10 0 -25 -6 -15 -6
-26 1 -30 5 -4 6 -11 3 -17 -10 -16 -11 -118 -1 -118 4 0 5 -5 1 -12 -10 -16
-11 -199 -1 -205 4 -2 4 -10 0 -16 -10 -16 -10 -108 0 -114 5 -3 4 -8 -1 -12
-6 -4 -7 -12 -3 -20 6 -10 60 -12 242 -12 129 1 241 2 249 2 8 1 67 1 130 0
155 0 145 0 230 0 41 0 80 1 85 0 8 0 372 0 475 0 8 0 116 0 240 0 124 0 241
0 260 1 19 0 55 0 80 -1 36 -2 291 -3 360 -2 8 0 69 0 135 0 66 -1 134 0 150
1 17 1 37 2 45 1 8 0 49 0 90 0 41 0 80 1 85 0 8 0 372 0 475 0 8 0 116 0 240
0 124 0 241 0 260 1 19 0 55 0 80 -1 36 -2 291 -3 360 -2 8 0 69 0 135 0 66
-1 134 0 150 1 17 1 37 2 45 1 8 0 49 0 90 0 41 0 80 1 85 0 8 0 372 0 475 0
8 0 116 0 240 0 124 0 241 0 260 1 19 0 55 0 80 -1 36 -2 291 -3 360 -2 8 0
69 0 135 0 66 -1 134 0 150 1 17 1 37 2 45 1 8 0 49 0 90 0 41 1 83 1 93 1 16
-1 17 232 17 4759 l0 4759 -22 -1 c-13 0 -40 1 -60 3 -21 2 -38 1 -38 -2 0 -3
-18 -5 -40 -5 -22 0 -40 3 -40 7 0 4 -14 3 -30 -2 -16 -5 -30 -6 -30 -2 0 6
-77 7 -105 2 -6 -2 -14 -1 -20 0 -19 4 -138 -1 -146 -6 -5 -3 -9 -1 -9 3 0 5
-15 7 -32 6 -38 -2 -85 -3 -110 -3 -10 0 -26 0 -35 0 -10 0 -41 0 -70 1 -28 1
-56 -2 -62 -5 -5 -4 -12 -3 -14 2 -3 4 -20 7 -39 6 -71 -5 -104 -5 -140 -2
-21 2 -38 1 -38 -2 0 -3 -18 -5 -40 -5 -22 0 -40 3 -40 7 0 4 -14 3 -30 -2
-16 -5 -30 -6 -30 -2 0 6 -77 7 -105 2 -6 -2 -14 -1 -20 0 -19 4 -138 -1 -146
-6 -5 -3 -9 -1 -9 3 0 5 -15 7 -32 6 -38 -2 -85 -3 -110 -3 -10 0 -26 0 -35 0
-10 0 -41 0 -70 1 -28 1 -56 -2 -62 -5 -5 -4 -12 -3 -14 2 -3 4 -20 7 -39 6
-71 -5 -104 -5 -140 -2 -21 2 -38 1 -38 -2 0 -3 -18 -5 -40 -5 -22 0 -40 3
-40 7 0 4 -13 3 -30 -2 -16 -5 -30 -6 -30 -2 0 6 -77 7 -105 2 -6 -2 -14 -1
-20 0 -19 4 -138 -1 -146 -6 -5 -3 -9 -1 -9 3 0 5 -15 7 -32 6 -38 -2 -85 -3
-110 -3 -10 0 -26 0 -35 0 -10 0 -41 0 -70 1 -28 1 -56 -2 -62 -5 -5 -4 -12
-3 -14 2 -3 4 -20 7 -39 6 -71 -5 -104 -5 -140 -2 -21 2 -38 1 -38 -2 0 -3
-18 -5 -40 -5 -22 0 -40 3 -40 7 0 4 -14 3 -30 -2 -17 -5 -30 -6 -30 -2 0 6
-77 7 -105 2 -6 -2 -14 -1 -20 0 -19 4 -138 -1 -146 -6 -5 -3 -9 -1 -9 3 0 5
-15 7 -32 6 -38 -2 -85 -3 -110 -3 -10 0 -26 0 -35 0 -10 0 -41 0 -70 1 -28 1
-56 -2 -62 -5 -5 -4 -12 -3 -14 2 -3 4 -20 7 -39 6 -71 -5 -104 -5 -140 -2
-21 2 -38 1 -38 -2 0 -3 -18 -5 -40 -5 -22 0 -40 3 -40 7 0 4 -13 3 -30 -2
-16 -5 -30 -6 -30 -2 0 6 -77 7 -105 2 -6 -2 -14 -1 -20 0 -19 4 -138 -1 -146
-6 -5 -3 -9 -1 -9 3 0 5 -15 7 -32 6 -38 -2 -85 -3 -110 -3 -10 0 -26 0 -35 0
-10 0 -41 0 -70 1 -28 1 -56 -2 -62 -5 -5 -4 -12 -3 -14 2 -3 4 -20 7 -39 6
-71 -5 -104 -5 -140 -2 -21 2 -38 1 -38 -2 0 -3 -18 -5 -40 -5 -22 0 -40 3
-40 7 0 4 -13 3 -30 -2 -16 -5 -30 -6 -30 -2 0 6 -77 7 -105 2 -6 -2 -14 -1
-20 0 -19 4 -138 -1 -146 -6 -5 -3 -9 -1 -9 3 0 5 -15 7 -32 6 -38 -2 -85 -3
-110 -3 -10 0 -26 0 -35 0 -10 0 -41 0 -70 1 -28 1 -56 -2 -62 -5 -5 -4 -12
-3 -14 2 -3 4 -20 7 -39 6 -71 -5 -104 -5 -140 -2 -21 2 -38 1 -38 -2 0 -3
-18 -5 -40 -5 -22 0 -40 3 -40 7 0 4 -13 3 -30 -2 -16 -5 -30 -6 -30 -2 0 8
-83 7 -105 -2 -8 -3 -17 -1 -20 4 -3 5 -18 5 -35 0 -17 -5 -30 -6 -30 -2 0 9
-476 9 -499 0z m543 -482 c20 8 146 10 146 2 0 -4 14 -3 30 2 17 5 30 5 30 0
0 -5 13 -5 30 0 17 5 30 5 30 0 0 -5 13 -5 30 0 17 5 30 5 30 0 0 -5 13 -5 30
0 17 5 30 5 30 0 0 -5 13 -5 30 0 17 5 30 5 30 0 0 -5 13 -5 30 0 17 5 30 5
30 0 0 -5 13 -5 30 0 17 5 30 5 30 0 0 -5 13 -5 30 0 17 5 30 5 30 0 0 -5 13
-5 30 0 17 5 30 5 30 0 0 -5 13 -5 30 0 17 5 30 5 30 0 0 -5 13 -5 29 0 15 4
34 4 42 0 7 -5 21 -4 30 1 11 6 20 5 24 -1 3 -5 15 -6 29 0 12 4 29 4 36 0 8
-5 22 -4 31 1 11 6 20 5 24 -1 3 -5 15 -6 28 -1 12 5 34 5 49 0 16 -4 28 -4
28 1 0 5 13 5 30 0 17 -5 30 -5 30 0 0 5 13 5 30 0 17 -5 30 -5 30 0 0 5 13 5
30 0 18 -5 32 -5 36 1 3 5 10 6 16 3 6 -4 32 -7 58 -7 26 0 52 3 58 7 6 3 13
2 16 -3 4 -6 18 -6 36 -1 17 5 30 6 30 2 0 -4 18 -7 40 -7 22 0 40 3 40 6 0 4
16 3 35 -1 19 -4 35 -4 35 0 0 5 12 5 28 1 15 -5 37 -5 49 0 12 4 25 4 28 -1
3 -5 18 -5 35 0 17 5 30 6 30 2 0 -4 18 -7 40 -7 22 0 40 3 40 6 0 4 16 3 35
-1 19 -4 35 -5 35 -1 0 3 23 6 50 6 28 0 50 -4 50 -8 0 -5 5 -5 10 -2 6 4 34
6 63 6 29 -1 60 -1 70 -1 9 0 24 0 32 0 8 0 22 0 30 0 8 0 22 0 30 0 8 0 22 0
30 0 8 0 22 0 30 0 8 0 22 0 30 0 8 0 22 0 30 0 8 0 22 0 30 0 8 0 22 0 30 0
8 0 22 0 30 0 8 0 22 0 30 0 8 0 22 0 30 0 8 0 22 0 30 0 8 0 22 0 30 0 8 0
22 0 30 0 8 0 22 0 30 0 8 0 22 0 30 0 8 0 22 0 30 0 8 0 22 0 30 0 8 0 22 0
30 0 8 0 22 0 30 0 8 0 22 0 30 0 8 0 22 0 30 0 8 0 22 0 30 0 8 0 22 0 30 0
8 0 22 0 30 0 8 0 22 0 30 0 8 0 22 0 30 0 8 0 22 0 30 0 8 0 22 0 30 0 8 0
22 0 30 0 8 0 22 0 30 0 8 0 23 0 33 0 9 0 40 0 69 -1 28 -1 56 2 62 5 5 4 12
2 15 -3 4 -6 18 -6 36 -1 17 5 30 6 30 2 0 -4 18 -7 40 -7 22 0 40 3 40 6 0 4
16 3 35 -1 19 -4 35 -4 35 0 0 5 12 5 28 1 15 -5 37 -5 49 0 12 4 25 4 28 -1
3 -5 18 -5 35 0 17 5 30 6 30 2 0 -4 18 -7 40 -7 22 0 40 3 40 6 0 4 16 3 35
-1 19 -4 35 -5 35 -1 0 3 23 6 50 6 28 0 50 -3 50 -7 0 -4 14 -3 30 2 17 5 30
5 30 0 0 -5 13 -5 30 0 17 5 30 5 30 0 0 -5 13 -5 30 0 17 5 30 5 30 0 0 -5
13 -5 30 0 17 5 30 5 30 0 0 -5 13 -5 30 0 17 5 30 5 30 0 0 -5 13 -5 30 0 17
5 30 5 30 0 0 -5 13 -5 30 0 17 5 30 5 30 0 0 -5 13 -5 30 0 17 5 30 5 30 0 0
-5 13 -5 30 0 17 5 30 5 30 0 0 -5 13 -5 30 0 17 5 30 5 30 0 0 -5 13 -5 29 0
15 4 34 4 42 0 7 -5 21 -4 30 1 11 6 20 5 24 -1 3 -5 15 -6 29 0 12 4 29 4 36
0 8 -5 22 -4 31 1 11 6 20 5 24 -1 3 -5 15 -6 28 -1 12 5 34 5 49 0 16 -4 28
-4 28 1 0 5 13 5 30 0 17 -5 30 -5 30 0 0 5 13 5 30 0 17 -5 30 -5 30 0 0 5
13 5 30 0 18 -5 32 -5 36 1 3 5 10 6 16 3 6 -4 32 -7 58 -7 26 0 52 3 58 7 6
3 13 2 16 -3 4 -6 18 -6 36 -1 17 5 30 6 30 2 0 -4 18 -7 40 -7 22 0 40 3 40
6 0 4 16 3 35 -1 19 -4 35 -4 35 0 0 5 12 5 28 1 15 -5 37 -4 50 0 12 5 22 4
22 0 0 -5 15 -6 33 -2 43 9 68 3 66 -17 -1 -9 -1 -21 0 -27 1 -5 2 -39 2 -75
-1 -36 -1 -164 0 -285 0 -121 0 -227 0 -235 0 -8 0 -80 0 -160 1 -80 1 -154 1
-165 0 -11 0 -119 0 -240 0 -121 0 -229 -1 -240 0 -11 0 -119 0 -240 0 -121 0
-227 0 -235 0 -8 0 -80 0 -160 1 -80 1 -154 1 -165 0 -11 0 -119 0 -240 0
-121 0 -229 -1 -240 0 -11 0 -119 0 -240 0 -121 0 -227 0 -235 0 -8 0 -80 0
-160 1 -80 1 -154 1 -165 0 -11 0 -119 0 -240 0 -121 0 -229 -1 -240 0 -11 0
-119 0 -240 0 -121 0 -227 0 -235 0 -8 0 -80 0 -160 1 -80 1 -154 1 -165 0
-11 0 -119 0 -240 0 -121 0 -229 -1 -240 0 -11 0 -119 0 -240 0 -121 0 -227 0
-235 0 -8 0 -80 0 -160 1 -80 1 -154 1 -165 0 -11 0 -119 0 -240 0 -121 0
-229 -1 -240 0 -11 0 -119 0 -240 0 -121 0 -227 0 -235 0 -8 0 -80 0 -160 0
-80 0 -151 0 -157 0 -7 0 -114 0 -238 0 -124 1 -235 0 -247 0 -38 0 -462 0
-473 0 -5 0 -63 -1 -128 l-2 -119 -34 4 c-19 2 -34 2 -34 -2 0 -3 -26 -4 -57
-2 -32 1 -96 2 -143 1 -47 0 -92 0 -100 0 -13 0 -116 0 -255 0 -16 0 -64 1
-105 1 -41 1 -79 1 -85 0 -21 -4 -116 0 -125 5 -5 3 -11 1 -15 -5 -4 -6 -11
-8 -16 -4 -6 3 -67 5 -137 4 -160 -1 -171 -1 -262 0 -41 1 -79 1 -85 0 -21 -4
-116 0 -125 5 -5 3 -11 1 -15 -5 -4 -6 -11 -8 -16 -4 -13 8 -347 7 -360 -1 -5
-4 -9 -1 -9 5 0 6 -4 9 -9 5 -8 -5 -70 -6 -166 -3 -11 0 -51 0 -90 -1 -38 0
-77 0 -85 0 -8 0 -46 0 -85 0 -38 0 -77 0 -85 0 -8 0 -58 0 -110 0 -52 0 -144
0 -204 -1 -59 0 -112 -3 -117 -6 -5 -3 -9 0 -9 6 0 6 -4 9 -9 5 -8 -5 -70 -6
-166 -3 -11 0 -51 0 -90 -1 -38 0 -77 0 -85 0 -8 0 -46 0 -85 0 -38 0 -77 0
-85 0 -8 0 -58 0 -110 0 -52 0 -144 0 -204 -1 -59 0 -112 -3 -117 -6 -5 -3 -9
0 -9 6 0 6 -4 9 -9 5 -8 -5 -70 -6 -166 -3 -11 0 -51 0 -90 -1 -64 -1 -225 -2
-300 -2 -16 0 -64 1 -105 1 -41 1 -79 1 -85 0 -21 -4 -116 0 -125 5 -5 3 -11
1 -15 -5 -4 -6 -11 -8 -16 -4 -6 3 -67 5 -137 4 -160 -1 -171 -1 -262 0 -41 1
-79 1 -85 0 -21 -4 -116 0 -125 5 -5 3 -11 1 -15 -5 -4 -6 -11 -8 -16 -4 -6 3
-75 6 -154 5 -89 0 -147 4 -151 10 -8 14 -9 103 0 117 3 6 2 13 -4 17 -7 4 -7
12 0 25 6 10 6 21 1 24 -4 3 -5 23 -1 45 4 21 3 46 -2 54 -5 9 -4 18 1 22 7 4
7 15 1 30 -6 16 -6 25 0 25 6 0 6 9 1 23 -5 12 -5 32 0 45 5 13 5 22 -1 22 -6
0 -6 9 0 25 5 13 5 27 1 30 -5 3 -5 21 -1 40 4 20 4 38 -1 41 -6 3 -6 12 0 22
5 9 5 26 0 39 -5 13 -5 23 -1 23 8 0 6 85 -3 100 -3 5 -2 10 4 10 7 0 7 8 1
25 -6 17 -6 25 1 25 6 0 7 5 4 10 -8 14 -9 196 -1 209 4 5 2 12 -4 16 -6 4 -7
12 -1 23 5 9 5 26 0 39 -5 13 -5 23 -1 23 8 0 7 74 -2 89 -4 5 -2 12 4 16 6 4
8 11 4 16 -8 14 -8 114 0 128 4 6 3 11 -3 11 -7 0 -7 8 -1 25 5 13 5 27 1 29
-5 3 -5 23 -1 44 4 21 3 48 -1 60 -5 12 -4 24 1 27 7 4 7 13 0 24 -5 10 -6 21
-3 25 9 8 10 66 1 66 -4 0 -3 14 2 30 5 17 5 30 1 30 -4 0 -5 22 -1 49 3 27 3
58 -1 70 -5 11 -4 23 1 26 7 4 7 13 0 24 -5 10 -6 21 -3 25 9 8 10 66 1 66 -4
0 -3 14 2 30 5 17 5 30 1 30 -4 0 -5 22 -1 49 3 27 3 58 -1 70 -5 11 -4 23 1
26 7 4 7 13 0 24 -5 10 -6 21 -3 25 9 8 10 66 1 66 -4 0 -3 14 2 30 5 17 5 30
1 30 -4 0 -5 22 -1 49 3 27 3 58 -1 70 -5 11 -4 23 1 26 7 4 7 13 0 24 -5 10
-6 21 -3 25 9 8 10 66 1 66 -4 0 -3 14 2 30 5 17 6 30 2 30 -8 0 -6 125 2 146
3 7 1 16 -4 19 -6 4 -7 14 -2 23 5 9 7 28 5 42 -6 46 -5 319 1 329 4 5 2 12
-4 16 -6 4 -7 12 -1 23 5 9 5 26 0 39 -5 13 -5 23 -1 23 8 0 7 74 -2 89 -4 5
-2 12 4 16 6 4 8 11 4 16 -8 14 -8 114 0 128 4 6 3 11 -3 11 -7 0 -7 8 -1 25
5 13 5 27 1 30 -5 3 -5 21 -1 40 4 20 4 38 -1 41 -6 3 -6 12 0 22 5 9 5 26 0
39 -5 13 -5 23 -1 23 8 0 6 85 -3 100 -3 5 -2 10 4 10 7 0 7 8 1 25 -6 17 -6
25 1 25 6 0 7 5 4 10 -8 14 -9 196 -1 209 4 5 2 12 -4 16 -6 4 -7 12 -1 23 5
9 5 26 0 39 -5 13 -5 23 -1 23 8 0 7 74 -2 89 -4 5 -2 12 4 16 6 4 8 11 4 16
-8 14 -8 114 0 128 4 6 3 11 -3 11 -7 0 -7 8 -1 25 5 13 5 27 1 30 -5 3 -5 21
-1 40 4 20 4 38 -1 41 -6 3 -6 12 0 22 5 9 5 26 0 39 -5 13 -5 23 -1 23 8 0 6
85 -3 100 -3 5 -2 10 4 10 7 0 7 8 1 25 -6 17 -6 25 1 25 6 0 7 5 4 10 -8 14
-9 196 -1 209 4 5 2 12 -4 16 -6 4 -7 12 -1 23 5 9 5 26 0 39 -5 13 -5 23 -1
23 8 0 7 83 -2 105 -3 8 -1 17 4 20 7 4 7 13 0 24 -5 10 -6 21 -3 25 9 8 10
66 1 66 -4 0 -3 14 2 30 5 17 5 30 1 30 -4 0 -5 22 -1 49 3 27 3 58 -1 70 -5
11 -4 23 1 26 7 4 7 13 0 24 -5 10 -6 21 -3 25 9 8 10 66 1 66 -4 0 -3 14 2
30 5 17 5 30 1 30 -4 0 -5 22 -1 49 3 27 3 58 -1 70 -5 11 -4 23 1 26 7 4 7
13 0 24 -5 10 -6 21 -3 25 9 8 10 66 1 66 -4 0 -3 14 2 30 5 17 5 30 1 30 -4
0 -5 22 -1 49 3 27 3 58 -1 70 -5 11 -4 23 1 26 7 4 7 13 0 24 -5 10 -6 21 -3
25 9 8 10 66 1 66 -4 0 -3 14 2 30 5 17 5 30 1 30 -5 0 -5 17 -1 38 4 21 3 48
-1 60 -5 12 -5 22 -1 22 4 0 7 14 7 30 0 17 -2 30 -5 30 -7 0 -3 77 5 90 3 6
2 10 -4 10 -7 0 -7 8 -1 25 5 13 5 27 1 30 -5 3 -5 21 -1 40 4 20 4 38 -1 41
-6 3 -6 12 0 22 5 9 5 26 0 39 -5 13 -5 23 -1 23 8 0 6 85 -3 100 -3 5 -2 10
4 10 7 0 7 8 1 25 -6 17 -6 25 1 25 6 0 7 5 4 10 -8 14 -9 196 -1 209 4 5 2
12 -4 16 -6 4 -7 12 -1 23 5 9 5 26 0 39 -5 13 -5 23 -1 23 8 0 7 74 -2 89 -4
5 -2 12 4 16 6 4 8 11 4 16 -8 14 -8 114 0 128 4 6 3 11 -3 11 -7 0 -7 8 -1
25 5 13 5 27 1 29 -5 3 -5 23 -1 45 4 21 3 46 -2 54 -5 9 -4 18 1 22 7 4 7 15
1 30 -6 16 -6 25 0 25 6 0 6 9 1 23 -5 12 -5 32 0 45 5 13 5 22 -1 22 -6 0 -6
9 0 25 5 13 5 27 1 30 -5 3 -5 21 -1 40 4 20 4 38 -1 41 -6 3 -6 12 0 22 5 9
5 26 0 39 -5 13 -5 23 -1 23 9 0 6 64 -2 87 -3 7 -1 13 4 13 5 0 5 12 1 28 -4
15 -4 38 0 52 4 14 7 22 8 18 1 -4 11 -4 24 1 12 5 23 5 25 0 2 -4 9 -6 16 -3z"/>
<path d="M4803 9522 c-6 -5 -10 -1068 -9 -3085 l0 -3077 40 0 c23 0 48 0 56
-1 8 0 41 1 73 3 31 2 57 -1 57 -5 0 -5 5 -5 10 -2 10 6 203 10 225 5 6 -1 15
-1 20 0 6 1 28 1 50 1 55 -2 53 -2 120 0 33 1 65 0 70 -1 6 -1 13 -1 18 0 9 2
75 2 85 0 4 -1 11 -2 16 -1 14 3 249 3 261 1 6 -1 15 -1 20 0 6 1 28 1 50 1
55 -2 53 -2 120 0 33 1 65 0 70 -1 6 -1 13 -1 18 0 9 2 75 2 85 0 4 -1 11 -2
16 -1 14 3 249 3 261 1 6 -1 15 -1 20 0 6 1 28 1 50 1 55 -2 53 -2 120 0 33 1
65 0 70 -1 6 -1 12 -2 15 -1 17 7 90 5 90 -2 0 -5 4 -6 9 -3 5 3 82 8 172 10
90 3 184 8 209 10 25 3 65 8 90 10 59 6 139 16 170 22 14 3 50 9 80 15 54 10
80 16 90 19 3 1 8 2 11 2 4 -1 22 3 40 9 19 6 47 13 62 15 28 5 215 67 252 83
21 10 57 23 65 26 21 5 217 110 222 119 4 6 8 8 8 4 0 -5 33 15 73 43 151 107
251 204 353 339 45 59 134 206 134 221 0 4 8 23 19 42 16 29 67 165 77 206 2
9 10 45 19 81 9 36 18 81 21 100 2 19 6 42 9 50 8 29 18 166 19 273 2 116 -9
261 -27 342 -2 11 -8 38 -12 60 -11 56 -10 53 -35 130 -13 39 -27 76 -33 83
-5 6 -7 12 -4 12 18 0 -124 243 -184 316 -38 45 -159 163 -198 192 -20 15 -38
30 -41 33 -9 12 -169 109 -180 109 -5 0 -10 5 -10 10 0 6 -6 10 -13 10 -7 0
-29 8 -50 19 -51 26 -118 54 -141 58 -11 2 -24 7 -30 12 -6 5 -38 17 -71 26
-33 9 -85 23 -115 32 -30 8 -66 17 -80 18 -14 2 -25 4 -25 5 0 2 -34 9 -80 16
-22 3 -42 8 -43 9 -2 2 29 13 68 25 302 90 560 253 728 459 90 111 172 257
208 371 9 30 21 61 27 68 5 6 7 12 4 12 -3 0 0 21 8 48 7 26 16 63 19 82 3 19
8 46 11 60 23 116 23 417 -1 533 -2 12 -7 41 -10 63 -6 56 -12 82 -18 92 -3 5
-7 19 -10 33 -16 88 -146 389 -168 389 -4 0 -8 7 -8 15 0 8 -4 15 -10 15 -5 0
-10 7 -10 15 0 8 -4 15 -10 15 -5 0 -10 6 -10 14 0 8 -3 16 -7 18 -5 2 -21 19
-37 38 -33 41 -100 112 -148 156 -42 39 -197 154 -208 154 -5 0 -15 6 -22 13
-16 15 -158 85 -243 120 -108 44 -295 99 -383 112 -21 3 -49 8 -62 10 -14 3
-41 8 -60 10 -19 3 -51 8 -70 11 -43 7 -127 14 -245 19 -49 2 -90 4 -90 5 0 5
-47 6 -50 1 -2 -4 -23 -5 -47 -3 -82 6 -188 7 -188 2 0 -3 -24 -4 -52 -2 -117
6 -188 7 -188 1 0 -3 -23 -3 -50 1 -28 4 -53 3 -55 0 -3 -4 -19 -5 -37 -3 -50
6 -178 9 -178 3 0 -3 -24 -4 -52 -2 -116 6 -188 7 -188 2 0 -3 -24 -4 -52 -2
-113 6 -188 7 -188 2 0 -3 -24 -4 -52 -2 -116 6 -188 7 -188 2 0 -3 -24 -4
-52 -2 -113 6 -188 7 -188 2 0 -3 -21 -4 -47 -2 -100 6 -193 7 -193 2 0 -6
-86 -4 -104 3 -7 3 -17 2 -23 -1z m2377 -446 c36 -3 92 -12 125 -18 33 -6 69
-12 80 -14 34 -5 169 -42 195 -52 23 -10 54 -20 65 -22 15 -3 158 -77 200
-103 126 -78 199 -145 289 -262 58 -75 131 -209 140 -255 1 -3 4 -9 7 -15 10
-15 48 -175 55 -231 9 -67 10 -307 1 -374 -23 -185 -80 -340 -180 -489 -44
-66 -200 -231 -218 -231 -4 0 -14 -6 -21 -13 -27 -26 -197 -125 -228 -132 -5
-2 -36 -14 -95 -38 -16 -6 -33 -12 -37 -13 -5 -1 -9 -2 -10 -4 -2 -1 -10 -3
-18 -5 -8 -2 -50 -13 -92 -24 -42 -11 -96 -23 -120 -26 -24 -3 -56 -8 -73 -11
-16 -3 -46 -8 -65 -11 -58 -8 -1900 -10 -1906 -2 -4 6 -6 1302 -4 2247 l0 113
923 -4 c507 -2 951 -7 987 -11z m75 -2799 c22 -3 63 -9 90 -12 51 -5 87 -11
138 -20 68 -12 84 -16 107 -22 31 -8 24 -6 90 -22 30 -8 60 -16 65 -20 6 -3
15 -6 22 -7 54 -9 308 -128 353 -167 11 -9 23 -17 26 -17 13 0 85 -61 154
-130 75 -76 84 -87 128 -149 32 -44 112 -205 112 -224 0 -9 5 -19 10 -22 6 -4
8 -11 4 -16 -3 -5 -1 -15 4 -22 9 -12 37 -141 47 -222 6 -49 6 -257 0 -305 -3
-19 -7 -51 -10 -70 -5 -41 -9 -60 -25 -120 -7 -25 -13 -49 -15 -55 -1 -5 -7
-23 -13 -38 -7 -16 -12 -30 -12 -32 0 -22 -107 -218 -129 -235 -3 -3 -19 -23
-36 -45 -28 -37 -101 -112 -142 -145 -69 -56 -102 -80 -112 -80 -6 0 -11 -4
-11 -8 0 -7 -193 -108 -255 -134 -64 -26 -267 -83 -335 -93 -14 -2 -47 -8 -75
-14 -46 -9 -77 -13 -203 -28 -26 -3 -478 -8 -1004 -10 l-958 -4 0 155 c0 86 0
617 0 1181 0 564 0 1057 0 1096 l0 70 973 -4 c534 -2 990 -7 1012 -10z"/>
<path d="M1468 7922 l-28 -3 0 -3960 0 -3959 3363 0 3362 0 -1 73 c-1 39 -3
77 -4 82 -1 6 -1 12 0 15 6 15 4 293 -3 297 -4 2 -5 9 -1 14 8 13 9 183 1 196
-3 5 -2 15 3 23 4 7 4 24 -1 37 -5 12 -5 23 -1 23 8 0 7 74 -2 89 -4 5 -3 12
2 15 8 5 6 95 -2 104 -3 2 -1 15 4 28 6 15 6 24 0 24 -6 0 -6 9 0 25 5 13 5
27 1 29 -5 3 -5 24 -1 46 4 22 4 40 0 40 -5 0 -6 9 -3 20 6 22 -11 24 -187 20
-41 -1 -82 -1 -90 -1 -180 4 -219 -3 -200 -38 5 -10 5 -23 0 -31 -5 -8 -5 -21
1 -31 6 -11 5 -20 -1 -24 -6 -4 -7 -12 -1 -23 5 -9 5 -26 0 -39 -5 -13 -4 -25
1 -28 6 -4 7 -13 1 -23 -6 -11 -6 -24 0 -34 6 -10 6 -19 0 -23 -7 -4 -7 -15
-1 -30 6 -15 6 -25 0 -25 -5 0 -5 -12 0 -30 5 -16 6 -30 2 -30 -4 0 -7 -25 -7
-55 0 -30 3 -55 7 -55 4 0 3 -11 -2 -25 -6 -15 -6 -26 0 -30 6 -4 7 -13 1 -24
-6 -10 -6 -23 -1 -31 5 -8 5 -21 0 -30 -5 -9 -5 -22 0 -30 14 -23 1 -31 -48
-30 -26 0 -83 1 -127 1 -44 0 -110 1 -148 2 -37 1 -67 -2 -67 -6 0 -5 -4 -6
-9 -2 -6 3 -45 5 -88 5 -43 -1 -87 -1 -98 -1 -21 0 -193 0 -210 0 -5 0 -57 0
-115 0 -58 0 -114 0 -125 0 -78 0 -1113 0 -1125 0 -8 0 -62 0 -120 0 -58 0
-112 0 -120 0 -8 0 -62 0 -120 0 -58 0 -112 0 -120 0 -8 0 -62 0 -120 0 -58 0
-112 0 -120 0 -48 1 -1106 1 -1110 0 -3 0 -27 0 -54 1 -143 5 -186 4 -186 -3
0 -5 -4 -6 -9 -2 -6 3 -45 5 -88 5 -43 -1 -87 -1 -98 -1 -21 0 -193 0 -210 0
-5 0 -57 0 -115 0 -58 0 -114 0 -125 0 -11 0 -214 0 -451 1 l-431 1 -2 109 c0
60 -1 113 -2 117 -1 4 -1 13 0 18 2 6 2 57 1 115 -1 58 -1 112 -1 120 1 68 2
459 0 466 -1 5 -1 14 0 19 1 6 2 57 1 115 -1 58 -1 111 -1 118 0 10 0 160 0
240 0 49 0 469 0 480 0 6 0 76 1 155 1 79 0 148 -1 153 -1 5 -1 14 0 19 1 6 2
57 1 115 -1 58 -1 111 -1 118 0 10 0 160 0 240 0 83 0 470 0 480 0 6 0 59 0
117 0 58 0 112 0 120 0 8 0 62 0 120 0 58 0 111 0 118 0 6 0 53 0 102 0 50 0
99 0 110 0 11 0 54 1 96 0 42 0 80 -1 85 -1 5 -1 14 0 19 2 6 2 57 1 115 -1
58 -1 114 0 125 1 11 1 25 1 30 0 17 0 209 0 230 0 11 0 49 0 85 0 36 0 72 0
80 0 8 0 44 0 80 1 36 0 79 -1 95 -1 17 -2 35 -2 40 2 37 3 452 1 460 -1 6 -1
13 0 18 2 12 3 211 0 222 -1 6 -1 13 0 18 2 12 3 211 0 222 -1 6 -1 13 0 18 2
12 3 211 0 222 -1 6 -1 13 0 18 1 6 1 151 -1 232 0 11 0 49 1 85 0 36 0 72 0
80 0 8 0 44 0 80 0 36 0 72 0 80 0 8 1 66 1 128 2 93 5 112 16 108 8 -3 14 -1
14 4 0 6 9 6 23 1 12 -5 32 -5 45 0 13 5 22 5 22 -1 0 -6 9 -6 23 -1 13 5 30
5 39 0 11 -6 19 -5 23 1 4 7 12 7 25 0 13 -7 21 -7 25 0 4 6 11 7 17 4 13 -8
155 -7 168 1 5 3 11 1 14 -3 6 -9 35 -10 51 0 6 3 19 2 30 -2 11 -4 30 -3 43
1 13 5 21 6 19 1 -3 -4 15 -7 39 -7 24 0 44 2 44 5 0 7 87 3 99 -5 5 -3 13 5
17 17 8 28 9 123 0 137 -4 5 -2 12 3 16 7 4 7 15 1 30 -5 14 -6 25 -2 25 4 0
7 14 7 30 0 17 -3 30 -7 30 -4 0 -3 14 2 30 5 17 6 30 2 30 -8 0 -7 85 2 98 3
6 -3 21 -14 33 -11 14 -19 18 -20 11 0 -7 -4 -10 -10 -7 -14 8 -80 13 -80 5 0
-4 -19 -4 -42 -1 -24 4 -62 4 -86 1 -24 -4 -45 -4 -47 0 -5 8 -36 7 -50 -2 -6
-3 -19 -2 -30 2 -11 4 -30 3 -43 -1 -13 -5 -21 -5 -18 0 4 5 -9 6 -28 1 -19
-4 -40 -4 -47 1 -7 4 -18 5 -23 1 -11 -6 -50 -6 -99 1 -15 2 -30 1 -33 -4 -2
-5 -15 -4 -27 0 -12 5 -32 5 -45 0 -13 -5 -21 -5 -18 -1 5 9 -436 8 -451 -1
-6 -4 -13 -4 -15 0 -1 5 -15 7 -30 5z"/>
</g>
</svg>
