<?xml version="1.0" standalone="no"?>
<!DOCTYPE svg PUBLIC "-//W3C//DTD SVG 20010904//EN"
 "http://www.w3.org/TR/2001/REC-SVG-20010904/DTD/svg10.dtd">
<svg version="1.0" xmlns="http://www.w3.org/2000/svg"
 width="700.000000pt" height="700.000000pt" viewBox="0 0 700.000000 700.000000"
 preserveAspectRatio="xMidYMid meet">
<metadata>
Created by potrace 1.11, written by Peter Selinger 2001-2013
</metadata>
<g transform="translate(0.000000,700.000000) scale(0.100000,-0.100000)"
fill="#000000" stroke="none">
<path d="M673 3567 l0 -3433 2826 1 2826 0 0 3430 0 3430 -2826 3 -2826 2 0
-3433z m5383 1 l-1 -3163 -2555 0 -2555 0 -1 3163 -1 3162 2557 0 2557 0 -1
-3162z"/>
<path d="M1899 5652 c-12 -2 -14 -287 -14 -2085 l0 -2082 1030 0 c567 0 1062
3 1100 7 91 10 183 25 259 44 34 8 69 17 79 19 38 9 175 59 227 84 147 69 260
148 362 253 213 218 312 491 303 838 -4 160 -25 268 -71 368 -103 225 -268
359 -603 489 -64 25 -117 46 -119 48 -2 1 32 23 75 48 250 144 439 342 521
548 47 115 66 216 66 354 0 268 -73 457 -252 647 -197 208 -517 364 -827 403
-27 3 -63 9 -80 12 -29 5 -2027 11 -2056 5z m1721 -673 c225 -2 364 -30 517
-104 144 -70 249 -182 286 -306 20 -65 21 -193 2 -264 -45 -170 -188 -295
-405 -354 -41 -11 -95 -23 -120 -26 -25 -3 -63 -9 -85 -12 -66 -10 -1246 -10
-1252 0 -4 7 -8 991 -4 1054 1 17 295 21 1061 12z m385 -1760 c386 -52 563
-211 568 -508 2 -145 -16 -212 -81 -306 -88 -128 -273 -215 -507 -241 -102
-11 -1415 -12 -1422 -1 -4 7 -8 932 -4 1045 l1 23 688 -2 c378 0 719 -5 757
-10z"/>
</g>
</svg>
